<?xml version="1.0" encoding="UTF-8" standalone="no"?>
<svg
   xmlns:dc="http://purl.org/dc/elements/1.1/"
   xmlns:cc="http://creativecommons.org/ns#"
   xmlns:rdf="http://www.w3.org/1999/02/22-rdf-syntax-ns#"
   xmlns:svg="http://www.w3.org/2000/svg"
   xmlns="http://www.w3.org/2000/svg"
   xmlns:sodipodi="http://sodipodi.sourceforge.net/DTD/sodipodi-0.dtd"
   xmlns:inkscape="http://www.inkscape.org/namespaces/inkscape"
   version="1.1"
   id="svg2"
   xml:space="preserve"
   width="580.78668"
   height="96"
   viewBox="0 0 580.78668 96"
   sodipodi:docname="SLAC_LogoSD.eps"><metadata
     id="metadata8"><rdf:RDF><cc:Work
         rdf:about=""><dc:format>image/svg+xml</dc:format><dc:type
           rdf:resource="http://purl.org/dc/dcmitype/StillImage" /></cc:Work></rdf:RDF></metadata><defs
     id="defs6" /><sodipodi:namedview
     pagecolor="#ffffff"
     bordercolor="#666666"
     borderopacity="1"
     objecttolerance="10"
     gridtolerance="10"
     guidetolerance="10"
     inkscape:pageopacity="0"
     inkscape:pageshadow="2"
     inkscape:window-width="640"
     inkscape:window-height="480"
     id="namedview4" /><g
     id="g10"
     inkscape:groupmode="layer"
     inkscape:label="ink_ext_XXXXXX"
     transform="matrix(1.3333333,0,0,-1.3333333,0,96)"><g
       id="g12"
       transform="scale(0.1)"><path
         d="m 2704,682.125 h 0.36 l 86.88,-128.418 h 26.91 v 156.172 h -21.1 V 581.48 h -0.4 l -86.16,128.399 H 2682.7 V 553.707 h 21.3 v 128.418"
         style="fill:#a80c30;fill-opacity:1;fill-rule:nonzero;stroke:none"
         id="path14" /><path
         d="m 2927.36,682.535 h 0.46 l 29.13,-71.797 h -59.08 z m -37.09,-90.215 h 74.36 l 15.74,-38.613 h 24.53 l -66.64,156.172 h -19.37 l -68.78,-156.172 h 24.68 l 15.48,38.613"
         style="fill:#a80c30;fill-opacity:1;fill-rule:nonzero;stroke:none"
         id="path16" /><path
         d="m 3055.1,553.707 h 21.02 v 136.426 h 50.48 v 19.746 h -121.77 v -19.746 h 50.27 V 553.707"
         style="fill:#a80c30;fill-opacity:1;fill-rule:nonzero;stroke:none"
         id="path18" /><path
         d="M 3187.61,709.879 H 3166.6 V 553.707 h 21.01 v 156.172"
         style="fill:#a80c30;fill-opacity:1;fill-rule:nonzero;stroke:none"
         id="path20" /><path
         d="m 3314.79,569.508 c -35.74,0 -58.94,28.027 -58.94,62.187 0,34.356 23.2,62.266 58.94,62.266 35.76,0 58.9,-27.91 58.9,-62.266 0,-34.16 -23.14,-62.187 -58.9,-62.187 z m 81.25,62.187 c 0,46.407 -33.63,82.246 -81.25,82.246 -47.79,0 -81.31,-35.839 -81.31,-82.246 0,-46.191 33.52,-82.05 81.31,-82.05 47.62,0 81.25,35.859 81.25,82.05"
         style="fill:#a80c30;fill-opacity:1;fill-rule:nonzero;stroke:none"
         id="path22" /><path
         d="m 3461.56,682.125 h 0.51 l 86.78,-128.418 h 26.91 v 156.172 h -21.18 V 581.48 h -0.45 l -85.94,128.399 H 3440.4 V 553.707 h 21.16 v 128.418"
         style="fill:#a80c30;fill-opacity:1;fill-rule:nonzero;stroke:none"
         id="path24" /><path
         d="m 3657.5,610.738 29.64,71.797 h 0.26 l 29.27,-71.797 z m 40.42,99.141 h -19.12 l -68.89,-156.172 h 24.65 l 15.48,38.613 h 74.31 l 15.68,-38.613 h 24.73 l -66.84,156.172"
         style="fill:#a80c30;fill-opacity:1;fill-rule:nonzero;stroke:none"
         id="path26" /><path
         d="m 3895.26,573.551 h -71.58 V 709.879 H 3802.4 V 553.707 h 92.86 v 19.844"
         style="fill:#a80c30;fill-opacity:1;fill-rule:nonzero;stroke:none"
         id="path28" /><path
         d="m 2710.49,339.07 29.63,71.629 h 0.37 l 29.27,-71.629 z m 107.26,-57.05 -66.79,155.925 H 2731.7 L 2662.95,282.02 h 24.74 l 15.43,38.496 h 74.41 l 15.4,-38.496 h 24.82"
         style="fill:#a80c30;fill-opacity:1;fill-rule:nonzero;stroke:none"
         id="path30" /><path
         d="m 2913.4,297.754 c -36.27,0 -58.13,28.008 -58.13,60.992 0,35.43 23.14,63.555 58.13,63.555 14.41,0 29.06,-6.426 37.73,-17.852 l 17.77,13.281 c -12.61,16.563 -34.17,24.317 -54.75,24.317 -48.1,0 -81.37,-34.844 -81.37,-83.301 0,-39.305 30.72,-80.73 80.23,-80.73 35.9,0 54.43,20.871 59.21,27.343 l -17.86,13.536 c -9.31,-13.125 -23,-21.141 -40.96,-21.141"
         style="fill:#a80c30;fill-opacity:1;fill-rule:nonzero;stroke:none"
         id="path32" /><path
         d="m 3071.15,422.301 c 14.32,0 28.78,-6.426 37.63,-17.852 l 17.67,13.281 c -12.63,16.563 -34.12,24.317 -54.68,24.317 -48.04,0 -81.36,-34.844 -81.36,-83.301 0,-39.305 30.62,-80.73 80.29,-80.73 35.66,0 54.47,20.871 59.12,27.343 l -17.92,13.536 c -9.22,-13.125 -22.92,-21.141 -40.75,-21.141 -36.33,0 -58.26,28.008 -58.26,60.992 0,35.43 23.15,63.555 58.26,63.555"
         style="fill:#a80c30;fill-opacity:1;fill-rule:nonzero;stroke:none"
         id="path34" /><path
         d="m 3268.51,418.18 v 19.765 H 3167.69 V 282.02 h 104.87 v 19.843 h -83.72 v 50.028 h 74.19 v 19.746 h -74.19 v 46.543 h 79.67"
         style="fill:#a80c30;fill-opacity:1;fill-rule:nonzero;stroke:none"
         id="path36" /><path
         d="M 3324.22,437.945 V 282.02 h 92.91 v 19.843 h -71.74 v 136.082 h -21.17"
         style="fill:#a80c30;fill-opacity:1;fill-rule:nonzero;stroke:none"
         id="path38" /><path
         d="m 3559.14,418.18 v 19.765 H 3458.2 V 282.02 h 104.94 v 19.843 h -83.66 v 50.028 h 74.1 v 19.746 h -74.1 v 46.543 h 79.66"
         style="fill:#a80c30;fill-opacity:1;fill-rule:nonzero;stroke:none"
         id="path40" /><path
         d="m 3663.77,369.352 h -27.76 v 50.195 h 27.76 c 16.71,0 33.56,-3.867 33.56,-25.098 0,-21.211 -16.85,-25.097 -33.56,-25.097 z m 56.02,25.097 c 0,19.551 -10.1,43.496 -50.12,43.496 h -54.88 V 282.02 h 21.22 v 68.66 h 23.57 l 39.76,-68.66 h 26.47 l -44.52,71.082 c 23.72,2.675 38.5,21.406 38.5,41.347"
         style="fill:#a80c30;fill-opacity:1;fill-rule:nonzero;stroke:none"
         id="path42" /><path
         d="m 3796.94,339.07 29.49,71.629 h 0.46 l 29.26,-71.629 z m 21.15,98.875 -68.74,-155.925 h 24.64 l 15.49,38.496 h 74.25 l 15.68,-38.496 h 24.65 l -66.71,155.925 h -19.26"
         style="fill:#a80c30;fill-opacity:1;fill-rule:nonzero;stroke:none"
         id="path44" /><path
         d="m 3956.41,282.02 h 21.22 v 136.16 h 50.23 v 19.765 H 3906.08 V 418.18 h 50.33 V 282.02"
         style="fill:#a80c30;fill-opacity:1;fill-rule:nonzero;stroke:none"
         id="path46" /><path
         d="m 4063.28,360.035 c 0,34.141 23.06,62.266 58.81,62.266 35.75,0 58.95,-28.125 58.95,-62.266 0,-34.273 -23.2,-62.281 -58.95,-62.281 -35.75,0 -58.81,28.008 -58.81,62.281 z m 140.12,0 c 0,46.406 -33.56,82.012 -81.31,82.012 -47.61,0 -81.29,-35.606 -81.29,-82.012 0,-46.305 33.68,-82.019 81.29,-82.019 47.75,0 81.31,35.714 81.31,82.019"
         style="fill:#a80c30;fill-opacity:1;fill-rule:nonzero;stroke:none"
         id="path48" /><path
         d="m 4266.04,369.352 v 50.195 h 27.84 c 16.68,0 33.59,-3.867 33.59,-25.098 0,-21.211 -16.91,-25.097 -33.59,-25.097 z m 45.43,-16.25 c 23.56,2.675 38.43,21.406 38.43,41.347 0,19.551 -10.1,43.496 -50.12,43.496 h -54.9 V 282.02 h 21.16 v 68.66 h 23.56 l 39.7,-68.66 h 26.58 l -44.41,71.082"
         style="fill:#a80c30;fill-opacity:1;fill-rule:nonzero;stroke:none"
         id="path50" /><path
         d="m 3027.76,28.6914 h -31.09 v 54.207 H 3028 c 20.6,0 33.47,-9.0898 33.47,-27.6445 0,-22.207 -20.9,-26.5625 -33.71,-26.5625 z m -31.09,119.0236 h 33.38 c 16.91,0 24.53,-10.442 24.53,-22.824 0,-17 -12.93,-23.387 -28.98,-23.387 h -28.93 z m 53.66,-55.2345 v 0.3711 c 15.74,5.3398 26.83,16.4844 26.83,34.4924 0,26.355 -20.28,39.043 -47.42,39.043 h -54.17 V 10.0664 h 53.54 c 30.32,0 54.88,15.5 54.88,43.6641 0,20.8281 -15.06,37.4023 -33.66,38.75"
         style="fill:#a80c30;fill-opacity:1;fill-rule:nonzero;stroke:none"
         id="path52" /><path
         d="m 3198.21,26.0156 c -35.76,0 -58.88,28.125 -58.88,62.2149 0,34.1915 23.12,62.1605 58.88,62.1605 35.48,0 58.82,-27.969 58.82,-62.1605 0,-34.0899 -23.34,-62.2149 -58.82,-62.2149 z m 0,144.1684 c -47.65,0 -81.65,-35.664 -81.65,-81.9535 0,-46.2969 34,-81.9805 81.65,-81.9805 47.54,0 81.32,35.6836 81.32,81.9805 0,46.2895 -33.78,81.9535 -81.32,81.9535"
         style="fill:#a80c30;fill-opacity:1;fill-rule:nonzero;stroke:none"
         id="path54" /><path
         d="m 3343.44,97.4414 v 50.2736 h 27.79 c 16.7,0 33.47,-3.75 33.47,-25.156 0,-21.055 -16.77,-25.1176 -33.47,-25.1176 z m 83.86,25.1176 c 0,19.609 -10.18,43.828 -50.06,43.828 h -54.87 V 10.0664 h 21.07 V 79.043 h 23.6 l 39.75,-68.9766 h 26.39 l -44.17,71.3672 c 23.57,2.5703 38.29,21.3594 38.29,41.1254"
         style="fill:#a80c30;fill-opacity:1;fill-rule:nonzero;stroke:none"
         id="path56" /><path
         d="m 3504.45,67.2344 29.58,71.7696 h 0.43 l 29.13,-71.7696 z m 21.16,99.1526 -68.83,-156.3206 h 24.73 l 15.34,38.7422 h 74.44 l 15.69,-38.7422 h 24.65 l -66.79,156.3206 h -19.23"
         style="fill:#a80c30;fill-opacity:1;fill-rule:nonzero;stroke:none"
         id="path58" /><path
         d="m 3613.51,146.395 h 50.39 V 10.0664 h 21.15 V 146.395 h 50.3 v 19.992 h -121.84 v -19.992"
         style="fill:#a80c30;fill-opacity:1;fill-rule:nonzero;stroke:none"
         id="path60" /><path
         d="m 3829.73,26.0156 c -35.62,0 -58.88,28.125 -58.88,62.2149 0,34.1915 23.26,62.1605 58.88,62.1605 35.62,0 58.81,-27.969 58.81,-62.1605 0,-34.0899 -23.19,-62.2149 -58.81,-62.2149 z m 0,144.1684 c -47.62,0 -81.56,-35.664 -81.56,-81.9535 0,-46.2969 33.94,-81.9805 81.56,-81.9805 47.58,0 81.36,35.6836 81.36,81.9805 0,46.2895 -33.78,81.9535 -81.36,81.9535"
         style="fill:#a80c30;fill-opacity:1;fill-rule:nonzero;stroke:none"
         id="path62" /><path
         d="m 3975.68,97.4414 v 50.2736 h 27.91 c 16.65,0 33.35,-3.75 33.35,-25.156 0,-21.055 -16.7,-25.1176 -33.35,-25.1176 z m 83.91,25.1176 c 0,19.609 -10.08,43.828 -50.07,43.828 h -55 V 10.0664 h 21.16 V 79.043 h 23.65 l 39.77,-68.9766 h 26.36 l -44.26,71.3672 c 23.47,2.5703 38.39,21.3594 38.39,41.1254"
         style="fill:#a80c30;fill-opacity:1;fill-rule:nonzero;stroke:none"
         id="path64" /><path
         d="m 4161.04,97.793 -42.69,68.594 h -26.94 l 59.07,-89.5511 V 10.0664 h 21.03 v 66.7695 l 59.38,89.5511 h -25.92 l -43.93,-68.594"
         style="fill:#a80c30;fill-opacity:1;fill-rule:nonzero;stroke:none"
         id="path66" /><path
         d="m 2704,166.387 h -21.3 V 10.0664 h 92.99 V 30.0977 H 2704 V 166.387"
         style="fill:#a80c30;fill-opacity:1;fill-rule:nonzero;stroke:none"
         id="path68" /><path
         d="m 2836.1,67.2344 29.49,71.7696 h 0.4 l 29.12,-71.7696 z m 21.01,99.1526 -68.8,-156.3206 h 24.73 l 15.49,38.7422 h 74.36 l 15.48,-38.7422 h 24.84 l -66.84,156.3206 h -19.26"
         style="fill:#a80c30;fill-opacity:1;fill-rule:nonzero;stroke:none"
         id="path70" /><path
         d="m 743.496,385.563 h -152.93 v -50.915 h 152.93 v 50.915"
         style="fill:#a80c30;fill-opacity:1;fill-rule:nonzero;stroke:none"
         id="path72" /><path
         d="M 743.438,283.77 H 590.566 V 12.5977 H 1089.93 V 151.465 H 743.438 V 283.77"
         style="fill:#a80c30;fill-opacity:1;fill-rule:nonzero;stroke:none"
         id="path74" /><path
         d="M 743.496,707.477 H 590.566 V 436.52 h 152.93 v 270.957"
         style="fill:#a80c30;fill-opacity:1;fill-rule:nonzero;stroke:none"
         id="path76" /><path
         d="M 1559.48,712.398 H 1418.5 L 1301.14,436.52 h 375.72 l -117.38,275.878"
         style="fill:#a80c30;fill-opacity:1;fill-rule:nonzero;stroke:none"
         id="path78" /><path
         d="M 1236.09,283.77 1120.62,12.5977 h 155.96 l 63.6,155.7813 h 293.78 l 63.58,-155.7813 h 159.78 L 1741.89,283.77 h -505.8"
         style="fill:#a80c30;fill-opacity:1;fill-rule:nonzero;stroke:none"
         id="path80" /><path
         d="m 1698.61,385.563 h -419.12 l -21.7,-50.915 h 462.41 l -21.59,50.915"
         style="fill:#a80c30;fill-opacity:1;fill-rule:nonzero;stroke:none"
         id="path82" /><path
         d="m 2051.75,360.289 c 0,-52.723 42.71,-95.406 95.43,-95.406 52.7,0 95.41,42.683 95.41,95.406 0,52.715 -42.71,95.43 -95.41,95.43 -52.72,0 -95.43,-42.715 -95.43,-95.43"
         style="fill:#a80c30;fill-opacity:1;fill-rule:nonzero;stroke:none"
         id="path84" /><path
         d="m 1929.27,334.648 c -0.97,8.368 -1.54,16.754 -1.54,25.329 0,8.691 0.65,17.207 1.65,25.586 h -141.72 c -0.51,-8.477 -1.01,-16.954 -1.01,-25.586 0,-8.536 0.3,-16.961 1.01,-25.329 h 141.61"
         style="fill:#a80c30;fill-opacity:1;fill-rule:nonzero;stroke:none"
         id="path86" /><path
         d="m 2146.67,578.844 c 70.56,0 133.13,-33.614 173.12,-85.43 l 93.63,108.262 c -65.85,72.637 -161.01,118.32 -266.75,118.32 -172.62,0 -316.69,-121.426 -351.86,-283.476 h 146.99 c 31.11,83.105 110.97,142.324 204.87,142.324"
         style="fill:#a80c30;fill-opacity:1;fill-rule:nonzero;stroke:none"
         id="path88" /><path
         d="m 2322.7,230.398 c -39.81,-53.964 -103.83,-89.226 -176.03,-89.226 -94.04,0 -173.93,59.305 -205.01,142.598 H 1794.81 C 1829.86,121.563 1973.93,0 2146.67,0 c 110.97,0 210.21,50.3125 276.31,129.336 L 2322.7,230.398"
         style="fill:#a80c30;fill-opacity:1;fill-rule:nonzero;stroke:none"
         id="path90" /><path
         d="m 299.254,436.52 c -94.668,25.644 -119.602,41.796 -119.602,84.453 0,34.511 30.891,61.406 89.352,61.406 58.664,0 119.215,-25.82 180.785,-68.516 l 79.395,115.157 c -70.551,56.621 -156.844,88.398 -258.094,88.398 -141.985,0 -243.2541,-83.652 -243.2541,-210.371 0,-27.734 3.4844,-50.645 9.8789,-70.527 H 299.254"
         style="fill:#a80c30;fill-opacity:1;fill-rule:nonzero;stroke:none"
         id="path92" /><path
         d="m 294.008,283.77 c 85.222,-24.747 104.078,-44.375 104.078,-79.7 0,-41.679 -37.719,-66.394 -100.227,-66.394 -79.402,0 -144.964,32.754 -207.5074,84.344 L 0,113.848 C 83.3203,39.375 189.594,2.56641 294.883,2.56641 c 149.844,0 255.18,77.46089 255.18,216.50359 0,24.785 -3.215,45.871 -9.223,64.7 H 294.008"
         style="fill:#a80c30;fill-opacity:1;fill-rule:nonzero;stroke:none"
         id="path94" /><path
         d="m 65.5508,385.563 c 17.5273,-21.075 40.9262,-37.34 69.3122,-50.915 h 378.25 c -16.449,20.133 -38.156,36.735 -64.984,50.915 H 65.5508"
         style="fill:#a80c30;fill-opacity:1;fill-rule:nonzero;stroke:none"
         id="path96" /></g></g></svg>
